<svg preserveAspectRatio="none" overflow="visible" style="display: block;" width="92.8908" height="92.8901" viewBox="0 0 92.8908 92.8901" fill="none" xmlns="http://www.w3.org/2000/svg">
<g id="ChatGPT">
<path id="Container" d="M0 15.482C0 6.93171 6.93136 0.000347155 15.4816 0.000347155H77.4081C85.9584 0.000347155 92.8898 6.93171 92.8898 15.482V77.4085C92.8898 85.9588 85.9584 92.8901 77.4081 92.8901H15.4816C6.93136 92.8901 0 85.9588 0 77.4085V15.482Z" fill="white"/>
<path id="Vector" d="M39.2306 38.0983V32.2677C39.2306 31.7767 39.4149 31.4083 39.8443 31.1631L51.567 24.412C53.1627 23.4914 55.0654 23.062 57.0291 23.062C64.3938 23.062 69.0586 28.7699 69.0586 34.8456C69.0586 35.2752 69.0586 35.7662 68.997 36.2573L56.8449 29.1378C56.1085 28.7084 55.3717 28.7084 54.6354 29.1378L39.2306 38.0983ZM66.6033 60.8068V46.8746C66.6033 46.0152 66.2348 45.4015 65.4985 44.9719L50.0938 36.0114L55.1264 33.1267C55.5559 32.8815 55.9243 32.8815 56.3538 33.1267L68.0765 39.8778C71.4523 41.842 73.7228 46.0152 73.7228 50.0656C73.7228 54.7299 70.9612 59.0268 66.6033 60.8068ZM35.6095 48.5321L30.5769 45.5863C30.1475 45.3411 29.9632 44.9726 29.9632 44.4815V30.9794C29.9632 24.4126 34.9958 19.441 41.8085 19.441C44.3865 19.441 46.7796 20.3004 48.8054 21.8347L36.7148 28.8315C35.9786 29.2609 35.6102 29.8747 35.6102 30.7342L35.6095 48.5321ZM46.4422 54.792L39.2306 50.7415V42.1495L46.4422 38.0989L53.6533 42.1495V50.7415L46.4422 54.792ZM51.0759 73.45C48.4979 73.45 46.1049 72.5905 44.079 71.0564L56.1695 64.0594C56.9059 63.63 57.2743 63.0163 57.2743 62.1567V44.3584L62.3686 47.3041C62.798 47.5493 62.9823 47.9177 62.9823 48.4089V61.911C62.9823 68.4778 57.888 73.45 51.0759 73.45ZM36.5301 59.7637L24.8074 53.0127C21.4315 51.0483 19.161 46.8753 19.161 42.8247C19.161 38.0989 21.9843 33.8642 26.3415 32.0842V46.0773C26.3415 46.9368 26.71 47.5505 27.4463 47.98L42.7901 56.8789L37.7574 59.7637C37.328 60.0089 36.9595 60.0089 36.5301 59.7637ZM35.8554 69.8289C28.9201 69.8289 23.8259 64.6121 23.8259 58.1678C23.8259 57.6768 23.8874 57.1857 23.9484 56.6947L36.0391 63.6915C36.7753 64.1211 37.5122 64.1211 38.2485 63.6915L53.6533 54.7927V60.6232C53.6533 61.1143 53.4691 61.4826 53.0395 61.7279L41.3169 68.479C39.7211 69.3995 37.8191 69.8289 35.8554 69.8289ZM51.0759 77.1321C58.5022 77.1321 64.7006 71.8541 66.1128 64.8573C72.9866 63.0773 77.4055 56.633 77.4055 50.0662C77.4055 45.7698 75.5645 41.5968 72.2502 38.5893C72.557 37.3004 72.7412 36.0114 72.7412 34.7231C72.7412 25.9468 65.6217 19.3793 57.3975 19.3793C55.7408 19.3793 54.1449 19.6245 52.5491 20.1772C49.7869 17.4767 45.9817 15.7583 41.8085 15.7583C34.3822 15.7583 28.1838 21.0362 26.7717 28.033C19.8979 29.813 15.479 36.2573 15.479 42.8241C15.479 47.1205 17.32 51.2935 20.6343 54.301C20.3274 55.5899 20.1432 56.8789 20.1432 58.1673C20.1432 66.9437 27.2627 73.511 35.4869 73.511C37.1437 73.511 38.7395 73.2658 40.3353 72.7131C43.0969 75.4136 46.9021 77.1321 51.0759 77.1321Z" fill="black"/>
</g>
</svg>
