<svg preserveAspectRatio="none" overflow="visible" style="display: block;" width="94.2586" height="94.2586" viewBox="0 0 94.2586 94.2586" fill="none" xmlns="http://www.w3.org/2000/svg">
<g id="Figma">
<g clip-path="url(#clip0_0_55)">
<path id="Container" d="M0.000954061 15.7104C0.000954061 7.03417 7.03446 0.000662175 15.7107 0.000662175H78.5498C87.2261 0.000662175 94.2596 7.03417 94.2596 15.7104V78.5495C94.2596 87.2258 87.2261 94.2593 78.5498 94.2593H15.7107C7.03446 94.2593 0.000954061 87.2258 0.000954061 78.5495V15.7104Z" fill="black"/>
<path id="Vector" d="M26.1819 68.0744C26.1819 62.2903 30.871 57.6012 36.6551 57.6012H47.1283V68.0744C47.1283 73.8585 42.4392 78.5476 36.6551 78.5476C30.871 78.5476 26.1819 73.8585 26.1819 68.0744Z" fill="#24CB71"/>
<path id="Vector_2" d="M47.1283 15.7084V36.6548H57.6015C63.3856 36.6548 68.0747 31.9658 68.0747 26.1816C68.0747 20.3975 63.3856 15.7084 57.6015 15.7084H47.1283Z" fill="#FF7237"/>
<path id="Vector_3" d="M57.5092 57.6032C63.2934 57.6032 67.9824 52.9142 67.9824 47.13C67.9824 41.3459 63.2934 36.6568 57.5092 36.6568C51.725 36.6568 47.036 41.3459 47.036 47.13C47.036 52.9142 51.725 57.6032 57.5092 57.6032Z" fill="#00B6FF"/>
<path id="Vector_4" d="M26.1819 26.1816C26.1819 31.9658 30.871 36.6548 36.6551 36.6548H47.1283V15.7084H36.6551C30.871 15.7084 26.1819 20.3975 26.1819 26.1816Z" fill="#FF3737"/>
<path id="Vector_5" d="M26.1819 47.13C26.1819 52.9142 30.871 57.6032 36.6551 57.6032H47.1283V36.6568H36.6551C30.871 36.6568 26.1819 41.3459 26.1819 47.13Z" fill="#874FFF"/>
<g id="image 877 [Vectorized]" clip-path="url(#clip1_0_55)">
<path id="Vector_6" d="M-1.19115 -0.69631H94.7459V95.2407H-1.19115V-0.69631Z" fill="black"/>
<path id="Vector_7" d="M44.5795 17.5206C51.3179 17.0496 58.0162 18.884 63.5743 22.7225C65.0781 23.7671 66.9804 25.2563 68.1314 26.6467C72.6284 32.0789 68.2979 42.0373 64.8539 46.9459C68.5065 50.584 72.295 54.5616 76.0167 58.095C75.0289 60.3006 73.3979 62.8588 71.8815 64.7318C66.3155 71.6772 58.184 76.0845 49.3263 76.9565C43.6116 77.5423 36.7409 75.9604 31.8345 72.9989C28.8053 71.1704 24.6929 68.3147 23.8385 64.7474C22.4167 58.8114 25.7017 52.4494 28.6455 47.5199C25.0492 44.1461 21.0477 39.9201 17.5434 36.3912C18.6125 34.0437 20.3871 31.2842 22.0297 29.3294C27.681 22.5562 35.7935 18.3079 44.5795 17.5206Z" fill="#FEFEFE"/>
<path id="Vector_8" d="M51.8039 32.5083C52.1928 32.4186 52.8071 32.5157 53.2094 32.5579C59.7921 33.248 62.3537 38.6615 61.0568 44.8486C59.5002 52.2752 52.9461 59.0584 45.6697 61.268C44.4398 61.6414 43.1634 61.8079 41.886 61.9767C25.0128 62.6016 31.3233 35.0298 51.8039 32.5083Z" fill="black"/>
<path id="Vector_9" d="M44.203 20.5177C44.7911 20.428 46.2624 20.467 46.924 20.454C52.1683 20.3513 56.0239 21.7742 60.534 24.1825C49.7255 26.0211 40.7335 33.5764 33.7261 41.6137C32.676 42.8628 31.6751 44.1522 30.7253 45.4791C29.9954 44.6015 28.1023 42.8679 27.1855 41.9398C25.8775 40.603 24.5592 39.2765 23.2306 37.9603C22.5904 37.324 21.7021 36.3956 21.0358 35.8453C22.0452 34.2082 22.9781 32.7895 24.2042 31.3049C29.1842 25.2091 36.3737 21.3312 44.203 20.5177Z" fill="black"/>
<path id="Vector_10" d="M62.7795 49.0965C63.2671 49.287 71.2347 57.604 72.5089 58.7004C71.8922 59.5422 71.3214 60.5422 70.7131 61.4227C64.7804 70.0104 53.6367 75.4522 43.1229 73.8656C39.6197 73.3736 36.0448 72.1814 33.0384 70.2928C33.6135 70.217 34.1864 70.1249 34.7562 70.0167C44.8904 68.0793 57.1497 57.416 62.7795 49.0965Z" fill="black"/>
<path id="Vector_11" d="M60.6028 26.1368C61.7913 25.8528 64.3782 26.5331 65.3241 27.25C71.0901 31.6202 65.366 41.9438 62.5635 46.2154C63.3533 43.0504 63.4811 41.4658 62.7474 38.3025C62.7276 38.2267 62.7066 38.1513 62.6845 38.0761C60.7277 31.4198 53.8931 29.631 47.7868 31.4328C50.9373 28.9236 56.6411 26.5791 60.6028 26.1368Z" fill="black"/>
<path id="Vector_12" d="M30.8169 48.5727C30.9296 48.7778 30.4582 50.9224 30.4146 51.3394C30.2483 52.9499 30.3799 54.5772 30.803 56.14C32.6309 63.0922 39.4156 64.7737 45.7084 63.1038C43.8901 64.4356 41.9238 65.4455 39.8856 66.3854C35.6992 68.2829 27.338 70.5115 25.958 63.6979C24.982 58.8795 28.1376 52.5814 30.8169 48.5727Z" fill="black"/>
</g>
</g>
</g>
<defs>
<clipPath id="clip0_0_55">
<rect width="94.2586" height="94.2586" rx="16.6847" fill="white"/>
</clipPath>
<clipPath id="clip1_0_55">
<rect width="95.937" height="95.937" fill="white" transform="translate(-1.19128 -0.695811)"/>
</clipPath>
</defs>
</svg>
